<svg xmlns="http://www.w3.org/2000/svg" width="64" height="64" viewBox="0 0 64 64"><path d="M10 60 V3 H14 V6 H18 V3 H22 V6 H26 V3 H30 V6 H34 V3 H38 V6 H42 V3 H46 V6 H50 V3 H54 V60 Z" fill="#F3F1EA" stroke="#B9BEC6" stroke-width="1"/><path d="M13 10.5 H51" stroke="#8C9198" stroke-width="1" stroke-dasharray="1.5 2.5"/><rect x="15" y="17" width="34" height="24" fill="#101113"/><rect x="15.0" y="17.0" width="4.25" height="4.25" fill="#F3F1EA"/><rect x="23.5" y="17.0" width="4.25" height="4.25" fill="#F3F1EA"/><rect x="32.0" y="17.0" width="4.25" height="4.25" fill="#F3F1EA"/><rect x="40.5" y="17.0" width="4.25" height="4.25" fill="#F3F1EA"/><rect x="19.25" y="21.25" width="4.25" height="4.25" fill="#F3F1EA"/><rect x="27.75" y="21.25" width="4.25" height="4.25" fill="#F3F1EA"/><rect x="36.25" y="21.25" width="4.25" height="4.25" fill="#F3F1EA"/><rect x="44.75" y="21.25" width="4.25" height="4.25" fill="#F3F1EA"/><path d="M21 34 H31" fill="none" stroke="#F3F1EA" stroke-width="2.4" stroke-linecap="square" stroke-linejoin="miter"/><path d="M15 48 H30" stroke="#101113" stroke-width="2.2"/><path d="M33 48 H39" stroke="#8C9198" stroke-width="1.5" stroke-dasharray="1.2 2.4"/><path d="M42 48 H49" stroke="#101113" stroke-width="2.2"/><path d="M15 55 H26" stroke="#101113" stroke-width="2.2"/><path d="M29 55 H36" stroke="#8C9198" stroke-width="1.5" stroke-dasharray="1.2 2.4"/><path d="M39 55 H49" stroke="#101113" stroke-width="2.2"/></svg>
